<?xml version="1.0" encoding="UTF-8"?>
<svg width="9px" height="10px" viewBox="0 0 9 10" version="1.1" xmlns="http://www.w3.org/2000/svg" xmlns:xlink="http://www.w3.org/1999/xlink">
    <!-- Generator: Sketch 47.1 (45422) - http://www.bohemiancoding.com/sketch -->
    <title>X</title>
    <desc>Created with Sketch.</desc>
    <defs></defs>
    <g id="Blog-Update" stroke="none" stroke-width="1" fill="none" fill-rule="evenodd">
        <g id="CL_BlogUpdate_scroll_01-update_992_emailClick" transform="translate(-226.000000, -535.000000)" fill="#54B30E">
            <g id="EMAIL-SIGN-UP" transform="translate(30.000000, 525.000000)">
                <g id="X" transform="translate(196.000000, 10.000000)">
                    <g id="Group">
                        <path d="M7.98132474,0.520525173 C8.19188685,0.515813689 8.40403099,0.595818182 8.56477412,0.761086765 C8.88168709,1.08533148 8.87704084,1.61349494 8.55490084,1.93218003 L1.66877115,8.99507571 C1.51834881,9.14697234 1.31643053,9.23155792 1.10541334,9.23076369 C1.09862762,9.23078904 1.09185038,9.23072516 1.08508311,9.23057272 C0.874521003,9.2352842 0.662376868,9.15527971 0.501633737,8.99001113 C0.184720768,8.66576642 0.189367018,8.13760296 0.511507018,7.81891786 L7.39763671,0.756022187 C7.54805905,0.604125552 7.74997733,0.519539975 7.96099452,0.520334206 C7.96778024,0.520308852 7.97455747,0.520372732 7.98132474,0.520525173 Z" id="Combined-Shape"></path>
                        <path d="M7.98132474,0.520525173 C8.19188685,0.515813689 8.40403099,0.595818182 8.56477412,0.761086765 C8.88168709,1.08533148 8.87704084,1.61349494 8.55490084,1.93218003 L1.66877115,8.99507571 C1.51834881,9.14697234 1.31643053,9.23155792 1.10541334,9.23076369 C1.09862762,9.23078904 1.09185038,9.23072516 1.08508311,9.23057272 C0.874521003,9.2352842 0.662376868,9.15527971 0.501633737,8.99001113 C0.184720768,8.66576642 0.189367018,8.13760296 0.511507018,7.81891786 L7.39763671,0.756022187 C7.54805905,0.604125552 7.74997733,0.519539975 7.96099452,0.520334206 C7.96778024,0.520308852 7.97455747,0.520372732 7.98132474,0.520525173 Z" id="Combined-Shape-Copy" transform="translate(4.533204, 4.875549) rotate(90.000000) translate(-4.533204, -4.875549) "></path>
                    </g>
                </g>
            </g>
        </g>
    </g>
</svg>